<svg width="890" height="204" viewBox="0 0 890 204" fill="none" xmlns="http://www.w3.org/2000/svg">
<path d="M324.951 22.9956C311.501 9.54855 293.599 1.48119 274.615 0.31182C255.632 -0.857549 236.875 4.95169 221.876 16.6463C208.179 6.00506 191.329 0.227007 173.984 0.223646C156.639 0.220285 139.787 5.99182 126.086 16.6277C110.46 4.36673 90.744 -1.46795 70.9622 0.314882C51.1805 2.09771 32.8252 11.3636 19.6436 26.2209C6.46199 41.0782 -0.551862 60.4063 0.0339499 80.2596C0.619762 100.113 8.76106 118.994 22.7958 133.048L70.7261 180.985C70.7632 181.021 70.8004 181.056 70.8421 181.093C70.8839 181.13 70.8955 181.148 70.9222 181.174C70.9721 181.224 71.0254 181.27 71.0753 181.319C71.8372 182.073 72.6105 182.808 73.3955 183.524C73.7993 183.894 74.2076 184.252 74.6183 184.613C74.9516 184.903 75.2865 185.191 75.623 185.475C89.2859 197.052 106.517 203.575 124.421 203.946C142.326 204.319 159.813 198.518 173.945 187.518C188.945 199.212 207.701 205.022 226.684 203.852C245.669 202.683 263.57 194.616 277.021 181.169L324.952 133.238C339.55 118.608 347.747 98.7841 347.747 78.1167C347.747 57.4493 339.549 37.626 324.951 22.9956ZM173.969 20.5269C185.364 20.5196 196.506 23.8933 205.983 30.221C215.461 36.5486 222.848 45.5457 227.21 56.0735C231.572 66.6014 232.712 78.1867 230.487 89.3629C228.262 100.539 222.771 110.804 214.71 118.859L173.969 159.599L133.226 118.859C125.165 110.804 119.674 100.539 117.449 89.3627C115.224 78.1862 116.364 66.6009 120.726 56.0731C125.088 45.5451 132.476 36.548 141.953 30.2205C151.431 23.893 162.573 20.5194 173.969 20.5269ZM68.4186 126.049C68.3979 118.479 69.8789 110.981 72.7757 103.988C75.6725 96.9948 79.9277 90.6455 85.2949 85.308L96.1385 74.4643C95.6136 85.3031 97.3627 96.1319 101.274 106.254C105.184 116.376 111.171 125.568 118.847 133.238L158.755 173.146C150.147 179.176 140.049 182.727 129.562 183.411C119.075 184.096 108.601 181.889 99.282 177.03C89.9631 172.171 82.1568 164.848 76.7141 155.857C71.2715 146.867 68.4012 136.555 68.4163 126.046L68.4186 126.049ZM37.1731 118.667C26.9751 108.472 20.9716 94.8221 20.3485 80.4152C19.7254 66.0082 24.528 51.8913 33.8075 40.8533C43.0871 29.8153 56.1689 22.6587 70.4687 20.7973C84.7685 18.9359 99.2465 22.5051 111.043 30.7998L70.9152 70.9271C63.6539 78.149 57.8972 86.7394 53.9782 96.2011C50.0593 105.663 48.0559 115.808 48.0841 126.049C48.0841 127.258 48.1123 128.462 48.1688 129.663L37.1731 118.667ZM221.902 183.664C210.131 183.692 198.637 180.086 188.991 173.339L229.095 133.238C236.772 125.568 242.757 116.376 246.667 106.254C250.578 96.1317 252.328 85.3031 251.803 74.4643L262.647 85.308C270.705 93.366 276.191 103.632 278.414 114.809C280.638 125.985 279.497 137.57 275.134 148.098C270.774 158.626 263.388 167.624 253.914 173.955C244.438 180.286 233.298 183.664 221.902 183.664ZM310.574 118.859L299.77 129.663C299.824 128.463 299.852 127.259 299.854 126.049C299.882 115.808 297.879 105.663 293.96 96.201C290.041 86.7393 284.283 78.149 277.022 70.9271L236.922 30.8264C248.739 22.6033 263.207 19.1023 277.477 21.0126C291.746 22.9229 304.784 30.1062 314.022 41.1481C323.26 52.19 328.029 66.2903 327.391 80.673C326.753 95.0556 320.754 108.678 310.574 118.859Z" fill="url(#paint0_linear_2292_1468)"/>
<path d="M434.466 98.4828V113.414C434.466 122.462 432.204 129.597 427.68 134.818C423.155 139.969 416.543 142.544 407.842 142.544C399.071 142.544 392.424 139.969 387.899 134.818C383.444 129.597 381.217 122.462 381.217 113.414V98.4828C381.217 89.4338 383.444 82.3339 387.899 77.183C392.424 72.0321 399.071 69.4566 407.842 69.4566C416.543 69.4566 423.155 72.0321 427.68 77.183C432.204 82.3339 434.466 89.4338 434.466 98.4828ZM421.624 98.4828C421.624 92.775 420.51 88.4942 418.283 85.6403C416.055 82.7168 412.575 81.255 407.842 81.255C403.108 81.255 399.628 82.7168 397.401 85.6403C395.173 88.4942 394.06 92.775 394.06 98.4828V113.414C394.06 119.121 395.173 123.437 397.401 126.36C399.628 129.284 403.108 130.746 407.842 130.746C412.575 130.746 416.055 129.284 418.283 126.36C420.51 123.437 421.624 119.121 421.624 113.414V98.4828ZM475.359 98.6916C473.619 98.6916 471.635 99.1092 469.407 99.9445C467.18 100.78 464.535 102.416 461.472 104.852V141.5H449.465V88.5638H460.846V95.6637C464.117 92.8098 467.215 90.7564 470.138 89.5035C473.062 88.1809 476.02 87.5197 479.013 87.5197C484.094 87.5197 487.958 89.1554 490.603 92.427C493.248 95.6289 494.57 100.153 494.57 106V141.5H482.563V107.462C482.563 101.615 480.162 98.6916 475.359 98.6916ZM510.126 126.569V64.2361H522.133V126.569C522.133 127.613 522.377 128.623 522.864 129.597C523.421 130.502 524.465 130.955 525.996 130.955H527.667V142.022H524.743C520.776 142.022 517.748 141.256 515.66 139.725C513.571 138.194 512.11 136.245 511.274 133.878C510.509 131.511 510.126 129.075 510.126 126.569ZM560.699 146.721C558.402 153.124 555.478 157.718 551.929 160.503C548.379 163.357 543.506 164.784 537.311 164.784V152.776C541 152.637 543.889 151.802 545.977 150.271C548.135 148.809 549.736 146.755 550.78 144.11L551.72 141.709L532.821 88.5638H544.724L553.808 114.98L557.358 126.152L560.803 114.98L569.47 88.5638H581.372L560.699 146.721ZM602.57 113.414C602.57 118.495 603.684 122.671 605.911 125.943C608.139 129.145 611.793 130.746 616.874 130.746C618.963 130.746 621.12 130.467 623.348 129.91C625.645 129.354 628.464 128.414 631.805 127.091L635.668 137.95C631.91 139.621 628.429 140.804 625.227 141.5C622.095 142.196 619.067 142.544 616.144 142.544C610.297 142.544 605.389 141.291 601.422 138.785C597.524 136.279 594.6 132.834 592.651 128.449C590.702 124.063 589.728 119.052 589.728 113.414V98.4828C589.728 92.8446 590.702 87.8329 592.651 83.4476C594.6 79.0624 597.524 75.6516 601.422 73.2154C605.389 70.7095 610.297 69.4566 616.144 69.4566C618.997 69.4566 621.956 69.8046 625.018 70.5007C628.081 71.1272 631.422 72.2409 635.042 73.8419L631.179 84.9094C627.977 83.5868 625.297 82.6472 623.139 82.0903C620.981 81.5334 618.893 81.255 616.874 81.255C611.793 81.255 608.139 82.856 605.911 86.0579C603.684 89.2598 602.57 93.4015 602.57 98.4828V113.414ZM673.066 98.6916C671.326 98.6916 669.342 99.1092 667.115 99.9445C664.887 100.78 662.242 102.416 659.18 104.852V141.5H647.172V64.2361H659.18V95.1416C662.381 92.427 665.375 90.478 668.159 89.2946C670.943 88.1113 673.797 87.5197 676.721 87.5197C681.802 87.5197 685.665 89.1554 688.31 92.427C690.955 95.6289 692.278 100.153 692.278 106V141.5H680.271V107.462C680.271 101.615 677.869 98.6916 673.066 98.6916ZM748.24 142.022C744.69 142.022 741.836 141.291 739.679 139.829C737.59 138.368 736.059 136.558 735.085 134.4C732.091 137.184 729.203 139.238 726.418 140.56C723.634 141.883 720.641 142.544 717.439 142.544C712.775 142.544 709.33 141.048 707.102 138.054C704.945 135.061 703.866 131.268 703.866 126.674C703.866 123.611 704.423 120.931 705.536 118.634C706.72 116.267 708.634 114.423 711.279 113.1C713.924 111.778 717.544 111.116 722.138 111.116C723.947 111.116 725.827 111.256 727.776 111.534C729.725 111.743 731.674 112.021 733.623 112.369V106.209C733.623 103.286 732.822 101.302 731.221 100.258C729.62 99.144 727.463 98.5872 724.748 98.5872C722.66 98.5872 720.363 98.8656 717.857 99.4225C715.42 99.9793 712.775 100.849 709.922 102.033L706.476 91.8005C713.506 88.9466 719.875 87.5197 725.583 87.5197C730.734 87.5197 734.702 88.3897 737.486 90.1299C740.34 91.8701 742.324 94.1671 743.437 97.021C744.551 99.8749 745.108 102.938 745.108 106.209V126.569C745.108 127.613 745.386 128.623 745.943 129.597C746.57 130.502 747.753 130.955 749.493 130.955H750.642V142.022H748.24ZM715.455 126.465C715.455 128.344 715.873 129.841 716.708 130.955C717.544 131.999 718.762 132.521 720.363 132.521C721.964 132.521 723.773 132.103 725.792 131.268C727.811 130.432 730.421 128.483 733.623 125.421V120.931C730.003 120.305 726.453 119.991 722.973 119.991C720.258 119.991 718.309 120.548 717.126 121.662C716.012 122.776 715.455 124.377 715.455 126.465ZM792.911 139.725C791.101 140.56 789.013 141.222 786.646 141.709C784.28 142.266 781.878 142.544 779.442 142.544C775.405 142.544 772.168 141.709 769.732 140.038C767.295 138.368 765.521 136.036 764.407 133.043C763.363 130.05 762.841 126.639 762.841 122.81V99.0048H754.279V88.5638H762.841V74.7815H774.848V88.5638H791.345V99.0048H774.848V122.81C774.848 126.012 775.44 128.24 776.623 129.493C777.876 130.676 779.651 131.268 781.948 131.268C783.062 131.268 784.245 131.163 785.498 130.955C786.82 130.676 788.282 130.224 789.883 129.597L792.911 139.725ZM814.885 78.5403H802.252V66.1155H814.885V78.5403ZM814.572 141.5H802.565V88.5638H814.572V141.5ZM871.313 138.472C867.693 139.934 864.282 140.978 861.081 141.604C857.879 142.231 854.851 142.544 851.997 142.544C844.131 142.544 838.18 140.317 834.143 135.862C830.105 131.407 828.087 125.49 828.087 118.112V111.847C828.087 106.905 828.992 102.624 830.801 99.0048C832.611 95.3853 835.187 92.5662 838.528 90.5476C841.869 88.529 845.802 87.5197 850.326 87.5197C854.015 87.5197 857.461 88.2853 860.663 89.8167C863.934 91.2784 866.579 93.6103 868.598 96.8122C870.686 99.9445 871.73 103.982 871.73 108.924C871.73 110.386 871.626 111.952 871.417 113.622C871.208 115.223 870.86 116.929 870.373 118.738H839.676C839.816 123.054 840.894 126.291 842.913 128.449C844.932 130.606 848.168 131.685 852.623 131.685C854.99 131.685 857.426 131.407 859.932 130.85C862.507 130.293 865.153 129.458 867.867 128.344L871.313 138.472ZM850.326 97.6475C847.124 97.6475 844.618 98.6916 842.809 100.78C841.068 102.798 840.059 105.722 839.781 109.55H859.828C859.897 109.202 859.932 108.889 859.932 108.611C859.932 108.263 859.932 107.949 859.932 107.671C859.932 104.33 858.992 101.824 857.113 100.153C855.234 98.4828 852.971 97.6475 850.326 97.6475Z" fill="white"/>
<defs>
<linearGradient id="paint0_linear_2292_1468" x1="173.873" y1="1.47318e-07" x2="173.873" y2="204" gradientUnits="userSpaceOnUse">
<stop stop-color="#1C65D1"/>
<stop offset="1" stop-color="#CD4CA9"/>
</linearGradient>
</defs>
</svg>
